<svg width="137" height="92" viewBox="0 0 137 92" fill="none" xmlns="http://www.w3.org/2000/svg">
<path d="M3.08 56.332L7.4 56.44L12.908 56.296C15.548 56.296 17.708 56.86 19.388 57.988C21.068 59.116 21.908 60.844 21.908 63.172C21.908 66.604 20.168 68.92 16.688 70.12C17.192 70.792 17.984 71.872 19.064 73.36C21.392 76.672 22.964 78.712 23.78 79.48C24.62 80.248 25.58 80.68 26.66 80.776L27.128 82.036L24.464 81.928L20.864 82C20.408 81.376 19.196 79.576 17.228 76.6C15.284 73.624 13.976 71.728 13.304 70.912C13.208 70.816 13.076 70.768 12.908 70.768H9.452V79.12C9.452 79.6 9.668 79.936 10.1 80.128C10.532 80.296 11.36 80.428 12.584 80.524L12.908 82.108C9.812 82.036 8.228 82 8.156 82L3.548 82.108L3.26 80.524C4.604 80.38 5.42 80.248 5.708 80.128C6.02 79.984 6.176 79.648 6.176 79.12V59.32C6.176 58.84 5.996 58.516 5.636 58.348C5.3 58.156 4.556 58.012 3.404 57.916L3.08 56.332ZM9.452 58.6V69.04C10.004 69.112 10.796 69.148 11.828 69.148C16.268 69.148 18.488 67.168 18.488 63.208C18.488 61.48 17.924 60.184 16.796 59.32C15.668 58.432 14.204 57.988 12.404 57.988C10.844 57.988 9.956 58.06 9.74 58.204C9.548 58.324 9.452 58.456 9.452 58.6ZM33.5807 73.792C33.5807 75.664 34.0367 77.308 34.9487 78.724C35.8847 80.116 37.1327 80.812 38.6927 80.812C40.2767 80.812 41.4407 80.272 42.1847 79.192C42.9527 78.112 43.3367 76.6 43.3367 74.656C43.3367 72.688 42.8327 71.02 41.8247 69.652C40.8407 68.284 39.5807 67.6 38.0447 67.6C36.5087 67.6 35.3807 68.164 34.6607 69.292C33.9407 70.396 33.5807 71.896 33.5807 73.792ZM38.3687 82.432C36.0167 82.432 34.0847 81.712 32.5727 80.272C31.0607 78.808 30.3047 76.9 30.3047 74.548C30.3047 72.172 31.0727 70.168 32.6087 68.536C34.1687 66.904 36.1247 66.088 38.4767 66.088C40.8527 66.088 42.7967 66.832 44.3087 68.32C45.8447 69.784 46.6127 71.704 46.6127 74.08C46.6127 76.432 45.8207 78.412 44.2367 80.02C42.6767 81.628 40.7207 82.432 38.3687 82.432ZM54.4354 73.792C54.4354 75.664 54.8914 77.308 55.8034 78.724C56.7394 80.116 57.9874 80.812 59.5474 80.812C61.1314 80.812 62.2954 80.272 63.0394 79.192C63.8074 78.112 64.1914 76.6 64.1914 74.656C64.1914 72.688 63.6874 71.02 62.6794 69.652C61.6954 68.284 60.4354 67.6 58.8994 67.6C57.3634 67.6 56.2354 68.164 55.5154 69.292C54.7954 70.396 54.4354 71.896 54.4354 73.792ZM59.2234 82.432C56.8714 82.432 54.9394 81.712 53.4274 80.272C51.9154 78.808 51.1594 76.9 51.1594 74.548C51.1594 72.172 51.9274 70.168 53.4634 68.536C55.0234 66.904 56.9794 66.088 59.3314 66.088C61.7074 66.088 63.6514 66.832 65.1634 68.32C66.6994 69.784 67.4674 71.704 67.4674 74.08C67.4674 76.432 66.6754 78.412 65.0914 80.02C63.5314 81.628 61.5754 82.432 59.2234 82.432ZM80.6901 82.072L76.8021 81.964C76.7781 81.964 75.3621 82 72.5541 82.072L72.2661 80.632C73.4181 80.536 74.1021 80.44 74.3181 80.344C74.5581 80.224 74.6781 79.912 74.6781 79.408V69.364C74.6781 68.932 74.5461 68.716 74.2821 68.716H72.3381C72.1701 68.38 72.0861 68.008 72.0861 67.6C73.2621 67.456 74.0541 67.312 74.4621 67.168C74.5821 67.144 74.6421 66.988 74.6421 66.7V65.908C74.6421 61.516 75.9021 58.312 78.4221 56.296C79.7661 55.192 81.4221 54.64 83.3901 54.64C84.1101 54.64 84.8421 54.808 85.5861 55.144C86.3301 55.456 86.7021 55.732 86.7021 55.972C86.5101 56.74 86.1021 57.592 85.4781 58.528C85.3821 58.624 85.2621 58.672 85.1181 58.672C83.3901 57.52 81.9501 56.944 80.7981 56.944C79.6701 56.944 78.8661 57.496 78.3861 58.6C77.9301 59.68 77.7021 61.744 77.7021 64.792V66.556C77.7021 66.868 77.8581 67.024 78.1701 67.024L82.0221 66.916C82.0941 67.084 82.1301 67.312 82.1301 67.6C82.1301 67.864 82.0461 68.236 81.8781 68.716H78.0981C77.8581 68.716 77.7381 68.896 77.7381 69.256C77.7381 69.28 77.7381 69.304 77.7381 69.328V79.408C77.7381 79.816 77.9301 80.104 78.3141 80.272C78.7221 80.44 79.4061 80.56 80.3661 80.632L80.6901 82.072ZM89.7348 82L85.8468 82.108L85.5588 80.668C86.7108 80.572 87.3948 80.476 87.6108 80.38C87.8508 80.26 87.9708 79.948 87.9708 79.444V70.3C87.9708 69.1 87.3708 68.5 86.1708 68.5C85.8828 68.5 85.6548 68.512 85.4868 68.536L85.1628 67.492C86.7228 67.108 87.7188 66.832 88.1508 66.664L90.3468 65.8C90.6588 65.8 90.8508 65.836 90.9228 65.908C90.9948 65.956 91.0308 66.112 91.0308 66.376V79.444C91.0308 79.876 91.1388 80.176 91.3548 80.344C91.5708 80.488 92.0988 80.596 92.9388 80.668L93.2628 82.108L89.7348 82ZM89.5188 61.552C88.9188 61.552 88.4148 61.372 88.0068 61.012C87.6228 60.628 87.4308 60.136 87.4308 59.536C87.4308 58.936 87.6348 58.42 88.0428 57.988C88.4508 57.556 88.9548 57.34 89.5548 57.34C90.1788 57.34 90.6828 57.52 91.0668 57.88C91.4748 58.24 91.6788 58.732 91.6788 59.356C91.6788 59.956 91.4628 60.472 91.0308 60.904C90.6228 61.336 90.1188 61.552 89.5188 61.552ZM98.3377 68.716L97.7977 68.752L97.4737 67.708C99.1537 67.3 100.39 66.892 101.182 66.484C101.974 66.076 102.418 65.848 102.514 65.8C102.826 65.8 103.006 65.824 103.054 65.872C103.15 65.968 103.222 66.736 103.27 68.176C104.422 67.48 105.43 66.964 106.294 66.628C107.182 66.268 108.142 66.088 109.174 66.088C112.51 66.088 114.178 67.876 114.178 71.452V79.444C114.178 79.876 114.286 80.176 114.502 80.344C114.718 80.488 115.246 80.596 116.086 80.668L116.41 82.108L112.882 82L108.994 82.108L108.706 80.668C109.858 80.572 110.542 80.476 110.758 80.38C110.998 80.26 111.118 79.948 111.118 79.444V72.676C111.118 71.14 110.818 70.072 110.218 69.472C109.618 68.872 108.67 68.572 107.374 68.572C106.078 68.572 104.734 68.908 103.342 69.58V79.444C103.342 79.876 103.45 80.176 103.666 80.344C103.882 80.488 104.41 80.596 105.25 80.668L105.574 82.108L102.046 82L98.1577 82.108L97.8697 80.668C99.0217 80.572 99.7057 80.476 99.9217 80.38C100.162 80.26 100.282 79.948 100.282 79.444V71.02C100.282 70.156 100.126 69.556 99.8137 69.22C99.5017 68.884 99.0097 68.716 98.3377 68.716ZM133.083 71.488C133.083 73.264 132.483 74.692 131.283 75.772C130.083 76.828 128.631 77.356 126.927 77.356C126.543 77.356 126.147 77.344 125.739 77.32C125.355 77.272 124.959 77.368 124.551 77.608C124.143 77.848 123.939 78.136 123.939 78.472C123.939 79.048 124.431 79.48 125.415 79.768C125.991 79.912 127.155 80.068 128.907 80.236C130.659 80.404 131.871 80.632 132.543 80.92C134.007 81.544 134.739 82.792 134.739 84.664C134.739 86.536 133.899 88.168 132.219 89.56C130.563 90.952 128.535 91.648 126.135 91.648C124.359 91.648 122.799 91.24 121.455 90.424C120.111 89.632 119.439 88.408 119.439 86.752C119.439 85.984 119.607 85.42 119.943 85.06C120.303 84.724 120.675 84.4 121.059 84.088C121.467 83.776 121.935 83.428 122.463 83.044C122.991 82.66 123.303 82.432 123.399 82.36C122.799 82.12 122.259 81.748 121.779 81.244C121.299 80.716 121.059 80.248 121.059 79.84C121.059 79.432 121.155 79.132 121.347 78.94C121.827 78.46 122.715 77.776 124.011 76.888C123.051 76.456 122.247 75.82 121.599 74.98C120.951 74.14 120.627 73.156 120.627 72.028C120.627 70.324 121.227 68.908 122.427 67.78C123.627 66.652 125.079 66.088 126.783 66.088C127.719 66.088 128.583 66.208 129.375 66.448C130.431 66.664 131.487 66.772 132.543 66.772C133.599 66.772 134.583 66.748 135.495 66.7C135.495 66.94 135.447 67.336 135.351 67.888C135.255 68.416 135.123 68.788 134.955 69.004L132.219 68.5C132.795 69.388 133.083 70.384 133.083 71.488ZM127.035 89.848C128.403 89.848 129.519 89.476 130.383 88.732C131.247 88.012 131.679 87.1 131.679 85.996C131.679 84.892 131.187 84.076 130.203 83.548C129.219 83.044 127.683 82.792 125.595 82.792C125.043 82.792 124.575 82.912 124.191 83.152C123.807 83.392 123.519 83.584 123.327 83.728C123.135 83.872 122.919 84.148 122.679 84.556C122.439 84.964 122.319 85.432 122.319 85.96C122.319 87.064 122.763 87.988 123.651 88.732C124.563 89.476 125.691 89.848 127.035 89.848ZM127.143 75.772C129.279 75.772 130.347 74.548 130.347 72.1C130.347 70.732 130.023 69.64 129.375 68.824C128.751 68.008 127.887 67.6 126.783 67.6C125.679 67.6 124.827 67.912 124.227 68.536C123.651 69.16 123.363 70.108 123.363 71.38C123.363 72.652 123.723 73.708 124.443 74.548C125.163 75.364 126.063 75.772 127.143 75.772Z" fill="white"/>
<path d="M4.284 42.856L0.54 43L0.18 41.344H0.396C1.5 41.224 2.34 40.924 2.916 40.444C3.516 39.94 4.02 39.124 4.428 37.996L12.06 17.44H13.788L22.284 38.572C22.788 39.748 23.232 40.516 23.616 40.876C24.024 41.236 24.672 41.416 25.56 41.416L25.956 43C24.084 42.88 22.392 42.82 20.88 42.82C19.392 42.82 17.94 42.88 16.524 43L16.2 41.452H16.344C18.24 41.428 19.188 41.092 19.188 40.444C19.188 40.132 18.324 37.996 16.596 34.036H7.632L5.868 38.932C5.796 39.22 5.76 39.472 5.76 39.688C5.76 40.192 5.988 40.576 6.444 40.84C6.9 41.104 7.68 41.272 8.784 41.344L9.216 43L4.284 42.856ZM11.772 22.66L8.316 32.164H15.768L11.772 22.66ZM31.6651 29.716L31.1251 29.752L30.8011 28.708C32.4811 28.3 33.7171 27.892 34.5091 27.484C35.3011 27.076 35.7451 26.848 35.8411 26.8C36.1531 26.8 36.3451 26.824 36.4171 26.872C36.4411 26.92 36.5131 27.832 36.6331 29.608C38.0491 27.928 39.4531 27.088 40.8451 27.088C42.2371 27.088 43.0771 27.364 43.3651 27.916C43.3651 28.444 42.9451 29.248 42.1051 30.328C41.8411 30.688 41.6851 30.868 41.6371 30.868L38.7571 29.824H38.5411C38.0131 29.824 37.5691 30.088 37.2091 30.616C36.8491 31.144 36.6691 31.888 36.6691 32.848V40.444C36.6691 40.876 36.8491 41.188 37.2091 41.38C37.5691 41.572 38.3131 41.668 39.4411 41.668L39.7651 43.108L35.5891 43L31.4851 43.108L31.1971 41.668C32.3491 41.572 33.0331 41.476 33.2491 41.38C33.4891 41.26 33.6091 40.948 33.6091 40.444V32.02C33.6091 31.156 33.4531 30.556 33.1411 30.22C32.8291 29.884 32.3371 29.716 31.6651 29.716ZM52.9377 38.5C52.9377 39.556 53.2977 40.384 54.0177 40.984C54.7617 41.56 55.8297 41.848 57.2217 41.848C58.6377 41.848 59.6817 41.272 60.3537 40.12C61.0497 38.968 61.3977 37.444 61.3977 35.548C61.3977 33.628 60.9537 32.068 60.0657 30.868C59.1777 29.668 58.0497 29.068 56.6817 29.068C55.3377 29.068 54.0897 29.548 52.9377 30.508V38.5ZM49.8777 36.916V20.968C49.8777 20.032 49.6857 19.42 49.3017 19.132C48.9177 18.82 48.5337 18.664 48.1497 18.664C47.7657 18.664 47.4897 18.676 47.3217 18.7L47.0337 17.62C47.7297 17.452 48.6537 17.164 49.8057 16.756C50.9577 16.324 51.7137 15.988 52.0737 15.748C52.5057 15.748 52.7217 15.844 52.7217 16.036L52.7577 29.392C53.1897 28.792 53.8617 28.264 54.7737 27.808C55.6857 27.328 56.7057 27.088 57.8337 27.088C59.8977 27.088 61.5537 27.796 62.8017 29.212C64.0497 30.604 64.6737 32.524 64.6737 34.972C64.6737 37.396 63.9897 39.412 62.6217 41.02C61.2537 42.628 59.3337 43.432 56.8617 43.432C55.0137 43.432 53.4417 43.072 52.1457 42.352L50.8497 43.324C50.7297 43.396 50.6337 43.432 50.5617 43.432C50.4657 43.432 50.2617 43.396 49.9497 43.324C49.8297 43.276 49.7817 43.168 49.8057 43C49.8537 42.808 49.8777 40.78 49.8777 36.916ZM75.3036 43L71.4156 43.108L71.1276 41.668C72.2796 41.572 72.9636 41.476 73.1796 41.38C73.4196 41.26 73.5396 40.948 73.5396 40.444V31.3C73.5396 30.1 72.9396 29.5 71.7396 29.5C71.4516 29.5 71.2236 29.512 71.0556 29.536L70.7316 28.492C72.2916 28.108 73.2876 27.832 73.7196 27.664L75.9156 26.8C76.2276 26.8 76.4196 26.836 76.4916 26.908C76.5636 26.956 76.5996 27.112 76.5996 27.376V40.444C76.5996 40.876 76.7076 41.176 76.9236 41.344C77.1396 41.488 77.6676 41.596 78.5076 41.668L78.8316 43.108L75.3036 43ZM75.0876 22.552C74.4876 22.552 73.9836 22.372 73.5756 22.012C73.1916 21.628 72.9996 21.136 72.9996 20.536C72.9996 19.936 73.2036 19.42 73.6116 18.988C74.0196 18.556 74.5236 18.34 75.1236 18.34C75.7476 18.34 76.2516 18.52 76.6356 18.88C77.0436 19.24 77.2476 19.732 77.2476 20.356C77.2476 20.956 77.0316 21.472 76.5996 21.904C76.1916 22.336 75.6876 22.552 75.0876 22.552ZM89.4504 37.924C89.4504 39.076 89.6544 39.964 90.0624 40.588C90.4704 41.188 91.0224 41.488 91.7184 41.488C92.4384 41.488 93.0984 41.296 93.6984 40.912C93.7944 40.864 93.8904 40.888 93.9864 40.984L94.6344 41.956C93.3144 42.94 91.9464 43.432 90.5304 43.432C89.1384 43.432 88.0944 43 87.3984 42.136C86.7264 41.248 86.3904 40.204 86.3904 39.004V29.968C86.3904 29.68 86.3424 29.5 86.2464 29.428C86.1744 29.356 86.0664 29.32 85.9224 29.32H84.6624L84.3384 28.276C85.3464 27.964 86.1624 27.46 86.7864 26.764C87.4344 26.068 88.0584 25.132 88.6584 23.956H89.0544C89.2224 23.956 89.3064 24.028 89.3064 24.172L89.4504 27.052C89.4504 27.364 89.6064 27.52 89.9184 27.52H94.0224L94.3464 29.32H89.8464C89.6064 29.32 89.4864 29.5 89.4864 29.86C89.4864 29.884 89.4864 29.896 89.4864 29.896V29.968L89.4504 37.924ZM103.785 34.792C103.785 36.664 104.241 38.308 105.153 39.724C106.089 41.116 107.337 41.812 108.897 41.812C110.481 41.812 111.645 41.272 112.389 40.192C113.157 39.112 113.541 37.6 113.541 35.656C113.541 33.688 113.037 32.02 112.029 30.652C111.045 29.284 109.785 28.6 108.249 28.6C106.713 28.6 105.585 29.164 104.865 30.292C104.145 31.396 103.785 32.896 103.785 34.792ZM108.573 43.432C106.221 43.432 104.289 42.712 102.777 41.272C101.265 39.808 100.509 37.9 100.509 35.548C100.509 33.172 101.277 31.168 102.813 29.536C104.373 27.904 106.329 27.088 108.681 27.088C111.057 27.088 113.001 27.832 114.513 29.32C116.049 30.784 116.817 32.704 116.817 35.08C116.817 37.432 116.025 39.412 114.441 41.02C112.881 42.628 110.925 43.432 108.573 43.432ZM123.739 29.716L123.199 29.752L122.875 28.708C124.555 28.3 125.791 27.892 126.583 27.484C127.375 27.076 127.819 26.848 127.915 26.8C128.227 26.8 128.419 26.824 128.491 26.872C128.515 26.92 128.587 27.832 128.707 29.608C130.123 27.928 131.527 27.088 132.919 27.088C134.311 27.088 135.151 27.364 135.439 27.916C135.439 28.444 135.019 29.248 134.179 30.328C133.915 30.688 133.759 30.868 133.711 30.868L130.831 29.824H130.615C130.087 29.824 129.643 30.088 129.283 30.616C128.923 31.144 128.743 31.888 128.743 32.848V40.444C128.743 40.876 128.923 41.188 129.283 41.38C129.643 41.572 130.387 41.668 131.515 41.668L131.839 43.108L127.663 43L123.559 43.108L123.271 41.668C124.423 41.572 125.107 41.476 125.323 41.38C125.563 41.26 125.683 40.948 125.683 40.444V32.02C125.683 31.156 125.527 30.556 125.215 30.22C124.903 29.884 124.411 29.716 123.739 29.716Z" fill="white"/>
</svg>
